<svg id="cluster" xmlns="http://www.w3.org/2000/svg" viewBox="0 0 72.67 65.64"><defs><style>.cls-1{fill:#ffad00;}</style></defs><path class="cls-1" d="M750.35,508.24l5.86,5.26,7.66-1.84a4.11,4.11,0,0,1,4.71,5.66l-3.19,7.2,4.12,6.72a4.1,4.1,0,0,1-3.93,6.22l-7.83-.81-5.12,6a4.1,4.1,0,0,1-7.13-1.8l-1.65-7.71-7.28-3a4.1,4.1,0,0,1-.49-7.34l6.82-3.95.61-7.86A4.11,4.11,0,0,1,750.35,508.24Z" transform="translate(-734.03 -507.18)"/><path class="cls-1" d="M795.71,522.85l2.59,5.25,5.79.84a3,3,0,0,1,1.69,5.2l-4.19,4.08,1,5.77a3,3,0,0,1-4.42,3.21L793,544.48l-5.18,2.72a3.05,3.05,0,0,1-4.43-3.21l1-5.77-4.19-4.08a3,3,0,0,1,1.69-5.2l5.79-.84,2.59-5.25A3,3,0,0,1,795.71,522.85Z" transform="translate(-734.03 -507.18)"/><path class="cls-1" d="M774.6,548.63v5.86l4.82,3.31a3,3,0,0,1-.78,5.41L773.07,565l-1.66,5.62a3,3,0,0,1-5.39.92l-3.44-4.73-5.85.15a3,3,0,0,1-2.55-4.83l3.44-4.74-2-5.52a3,3,0,0,1,3.81-3.92l5.57,1.81,4.64-3.56A3.05,3.05,0,0,1,774.6,548.63Z" transform="translate(-734.03 -507.18)"/></svg>