<svg xmlns="http://www.w3.org/2000/svg" viewBox="0 0 561.65 65.64"><g id="press-title"><text transform="translate(114.68 42.56)" style="font-size:36px;fill:#ffad00;font-family:Tomarik-Poster, Tomarik;font-weight:900">â†Press the <tspan x="162.57" y="0" style="letter-spacing:0.019978841145833332em">s</tspan><tspan x="174.53" y="0" style="letter-spacing:0.030002170138888888em">t</tspan><tspan x="188.71" y="0">ar clu</tspan><tspan x="264.88" y="0" style="letter-spacing:0.019992404513888888em">st</tspan><tspan x="290.66" y="0">er to </tspan><tspan x="366.94" y="0" style="letter-spacing:0.019978841145833332em">s</tspan><tspan x="378.89" y="0" style="letter-spacing:0.030002170138888888em">t</tspan><tspan x="393.08" y="0">a</tspan><tspan x="408.27" y="0" style="letter-spacing:0.019965277777777776em">r</tspan><tspan x="422.74" y="0" style="letter-spacing:0.00002712673611111111em">t!</tspan></text></g><g id="cluster"><path d="M750.35,508.24l5.86,5.26,7.66-1.84a4.11,4.11,0,0,1,4.71,5.66l-3.19,7.2,4.12,6.72a4.1,4.1,0,0,1-3.93,6.22l-7.83-.81-5.12,6a4.1,4.1,0,0,1-7.13-1.8l-1.65-7.71-7.28-3a4.1,4.1,0,0,1-.49-7.34l6.82-3.95.61-7.86A4.11,4.11,0,0,1,750.35,508.24Z" transform="translate(-734.03 -507.18)" style="fill:#ffad00"/><path d="M795.71,522.85l2.59,5.25,5.79.84a3,3,0,0,1,1.69,5.2l-4.19,4.08,1,5.77a3,3,0,0,1-4.42,3.21L793,544.48l-5.18,2.72a3.05,3.05,0,0,1-4.43-3.21l1-5.77-4.19-4.08a3,3,0,0,1,1.69-5.2l5.79-.84,2.59-5.25A3,3,0,0,1,795.71,522.85Z" transform="translate(-734.03 -507.18)" style="fill:#ffad00"/><path d="M774.6,548.63v5.86l4.82,3.31a3,3,0,0,1-.78,5.41L773.07,565l-1.66,5.62a3,3,0,0,1-5.39.92l-3.44-4.73-5.85.15a3,3,0,0,1-2.55-4.83l3.44-4.74-2-5.52a3,3,0,0,1,3.81-3.92l5.57,1.81,4.64-3.56A3.05,3.05,0,0,1,774.6,548.63Z" transform="translate(-734.03 -507.18)" style="fill:#ffad00"/></g></svg>