<svg xmlns="http://www.w3.org/2000/svg" viewBox="0 0 558.05 65.64"><defs><style>.cls-1{fill:#ffad00;}</style></defs><g id="press-title"><path class="cls-1" d="M861.53,544.52l-1.08-.79-.58-.36-1-.76-1-.61-.9-.68-.86-.51-.87-.65-.5-.36-1.12-.72-.54-.39-.68-.72v-.54l.22-.29.61-.47.5-.39,1.08-.72,1.23-.87.75-.61.76-.5,1.51-1.16.83-.54.54-.36,1.08-.75.72-.43.43.14.25.86v1.34l-.58,1.15-.61.39-1.19.9-.61.44-.5.54.32,0,.58,0,.75,0h.83l2.74.11.32,0h.79l2.49-.07h2.45l.86-.07.86,0,.65-.08.69.08,1,0h1l.61,0,.22.18.21.57-.1,1.16-.11.93-.87.25-.72.08-.68,0h-2.84l-1.34,0-1.76.11h-2.41l-.54,0-.47,0-.68-.08h-.8l-.79,0-1.19-.07h-1.29l-.36.36.93.68,1.23.86.54.44.47,1.26v.75l-.18,1-.47.22Z" transform="translate(-734.03 -507.18)"/><path class="cls-1" d="M884.42,549.13l-.25-.87V544.2l0-1.3v-.58l-.11-.72.07-.18,0-.5v-.79l0-.72v-.72l0-1.08-.08-1,.11-.8,0-1.11-.08-.79.11-.29-.07-.54v-.87l-.07-1.11.14-1v-4.54l.11-.29.18-.14.72,0h.61l1.3,0,.68.18L889,526l.83.68.5.58.72.9.4.64.65,1.34.25.68.29,1.33.1,1.08,0,1.19-.14,1.55-.11.75-.47,1.23-.61,1.11-.43.62-.47.61-1.15,1.08L888,542l-.65.75,0,.68.07.62,0,.54,0,.54V546l-.07.9v1.4l.07.47-.58.51-1.4.07ZM888,538.58l1-.9.71-1.51.22-1.51,0-.72-.07-.76-.29-1.19-.33-1.08-.25-.57-.72-1.08-.39-.51-.51-.61-.21.61,0,1.3,0,.61,0,1.37v2.19l0,.76v2.38l0,1,.15.47Z" transform="translate(-734.03 -507.18)"/><path class="cls-1" d="M899.76,549.7h-.83l-.93-.14-.15-.83.15-1v-1.65l0-.94,0-.65.11-.75v-3.57l.1-.79,0-.65v-.64l0-1,0-.72.15-.76,1.18-.29,1.37.11.47,1,0,.65,0,.69v.64l.18.62.5-.62.47-.46.51-.47.5-.43,1-.87.58-.32,1-.47.76.25.14,1.08,0,.72-.69,1.05-.54.36-.54.39-.82.58-.72.86-.51.54-.9,1.22-.39.58-.4.65-.36,1.33v2.12l-.07,1.12,0,.72.07.54-.39.29Z" transform="translate(-734.03 -507.18)"/><path class="cls-1" d="M915.31,549.63l-1.08-.18-.61-.25L913,549l-1.15-.8-.47-.57-.54-1-.28-.94-.22-1.44,0-1v-.79l.21-1.08.25-1.41.51-1.69.79-1.47.54-.62,1.19-.86.61-.25.68-.15,1.37-.07,1.51.07,1.37.4,1,.9.44.58.32.64.36,1.48.07,1.22-.07,1.05-.07,1.22L921,543l-2,.29-.75,0-1.16.08H914.7l-.79,0-.4.4.07.54.15.79.68.9,1.08.54.68.18.69.14.72.11h.72l.68,0,.87.11.21.58,0,.79,0,.72-.32.4-1,.14-.75.07-1.12.07Zm2.56-9.36,1,0,0-.69-.36-.75-.68-.47-.61-.18-.76,0-.58.18-1,.65-.43.54-.18.69.76,0Z" transform="translate(-734.03 -507.18)"/><path class="cls-1" d="M925.61,549.59l-.22-.25,0-1,.1-1.33.87-.36,1.87-.11.83-.4.5-.79-.29-1.33-.32-.61-.79-1.12-.87-1.15-1.11-1.44-.29-.72-.14-1.47.21-.72.4-.62.79-.64.47-.15.86-.25.68-.07,1.59,0,1.19.18.39.79,0,.58,0,.83-.25.29-.83.14-.61,0-1.15.18-.61.21.21.72.58.76.68.68,1.37,1.69.4.62.32.64.5,1.33.08.69,0,.72-.43,1.37-.47.57-.54.51-1.19.61-1.29.32-.8.11-1.58.14Z" transform="translate(-734.03 -507.18)"/><path class="cls-1" d="M936.84,549.59l-.22-.25,0-1,.11-1.33.86-.36,1.87-.11.83-.4.5-.79-.28-1.33-.33-.61-.79-1.12-.86-1.15-1.12-1.44-.29-.72-.14-1.47.21-.72.4-.62.79-.64.47-.15.86-.25.69-.07,1.58,0,1.19.18.39.79,0,.58,0,.83-.25.29-.83.14-.61,0-1.15.18-.61.21.21.72.58.76.68.68,1.37,1.69.4.62.32.64.51,1.33.07.69,0,.72-.43,1.37-.47.57-.54.51-1.19.61-1.29.32-.79.11-1.59.14Z" transform="translate(-734.03 -507.18)"/><path class="cls-1" d="M964.92,549.56l-1.37-.47-.61-.36-.58-.47-.5-.54-.4-.61-.32-.68-.4-1.3-.21-1.3-.15-1.4,0-.65v-5.5l-.54-.33-2,0-.75-.18-.22-1,0-.76.83-1h2.13l.64-.47.08-1.18v-.69l.25-.86,1-.22,1.08,0,.47.25.14.9v1.44l.11.72h1.58l1,0h1.8l.46.47.11,1.12,0,.61-.44.61-.54.07h-1.08l-.68,0L965,536l-1.44.07-.11.22,0,.94V540l-.15,1,.11.82v1l.11,1.18.54,1.48,1.29.9.69.29.72.14,1.08,0,.47.18.1.39.08.54-.11,1-.15.75-.93.22h-.83Z" transform="translate(-734.03 -507.18)"/><path class="cls-1" d="M980.22,549.7l-.29-.61.07-1.15.07-1.12,0-1.15L980,545l.07-.36L980,544l0-1-.07-1.26-.07-.68-.18-.65-.26-.65-.79-1.26-.9-.36-.93-.14-.9.54.1.79,0,.94,0,1.08v1.29l.07,1.12,0,.93,0,1,0,1.19v1.41l-.18.93-.65.54h-1.94l-.25-.21-.07-.76,0-.72-.07-1.37-.07-2.95,0-1.19v-.93l-.11-.9,0-1.23.07-1.22,0-.83,0-.86,0-1.23,0-1.15,0-.9v-1l.07-.69-.07-.54.07-.57-.07-.65,0-.79,0-.87v-.89l-.11-1,.11-.75.9-.29h.69l.68,0,.83.25.11,1v5.76l0,1.29,0,.87,0,.61.18.18.4-.07,2,0,.65.11.65.22.58.28.54.44.46.46.76,1.19.29.65.36,1.44.11.72.1.76v7.09l-.14.93-.47.51h-1.19Z" transform="translate(-734.03 -507.18)"/><path class="cls-1" d="M993,549.63l-1.08-.18-.61-.25-.58-.25-1.15-.8-.46-.57-.54-1-.29-.94-.22-1.44,0-1v-.79l.21-1.08.26-1.41.5-1.69.79-1.47.54-.62,1.19-.86.61-.25.68-.15,1.37-.07,1.51.07,1.37.4,1,.9.43.58.32.64.36,1.48.07,1.22-.07,1.05-.07,1.22-.5.61-2.06.29-.75,0-1.15.08h-2.38l-.79,0-.4.4.07.54.15.79.68.9,1.08.54.69.18.68.14.72.11H996l.68,0,.87.11.21.58,0,.79,0,.72-.32.4-1,.14-.76.07-1.12.07Zm2.56-9.36,1,0,0-.69-.36-.75-.68-.47-.61-.18-.76,0-.57.18-1,.65-.43.54-.18.69.76,0Z" transform="translate(-734.03 -507.18)"/><path class="cls-1" d="M1013.34,549.59l-.22-.25,0-1,.11-1.33.86-.36,1.87-.11.83-.4.5-.79-.29-1.33-.32-.61-.79-1.12-.86-1.15-1.12-1.44-.29-.72-.14-1.47.21-.72.4-.62.79-.64.47-.15.86-.25.69-.07,1.58,0,1.19.18.39.79,0,.58,0,.83-.25.29-.83.14-.61,0-1.15.18-.61.21.21.72.58.76.68.68,1.37,1.69.4.62.32.64.51,1.33.07.69,0,.72-.43,1.37-.47.57-.54.51-1.19.61-1.29.32-.79.11-1.59.14Z" transform="translate(-734.03 -507.18)"/><path class="cls-1" d="M1032.06,549.56l-1.37-.47-.61-.36-.58-.47-.5-.54-.4-.61-.32-.68-.4-1.3-.21-1.3-.15-1.4,0-.65v-5.5L1027,536l-2,0-.76-.18-.21-1,0-.76.83-1H1027l.64-.47.08-1.18v-.69l.25-.86,1-.22,1.08,0,.47.25.14.9v1.44l.11.72h1.58l1,0H1035l.47.47.11,1.12,0,.61-.43.61-.54.07h-1.08l-.68,0-.72.07-1.44.07-.11.22,0,.94V540l-.15,1,.11.82v1l.11,1.18.54,1.48,1.29.9.69.29.72.14,1.08,0,.47.18.1.39.07.54-.1,1-.15.75-.93.22h-.83Z" transform="translate(-734.03 -507.18)"/><path class="cls-1" d="M1041.24,550.06l-.69-.25-.61-.4-.65-1.22-.07-.65.11-.68.22-.61.28-.62.9-1.11.54-.54.54-.51,1.23-.93,1.15-.79.54-.33.58-.32,1.08-.54.5-.9-.32-.54-1-.86-.65-.22-.68-.14-1.52,0-2.48.18-.58-.11-.18-.75v-.62l.18-.79.9-.36,1.41-.25h1.29l.9-.07,1,0,.64.11,1.37.29,1.15.9.51.61.32.65.18.86.22.8.14.72.07.72.15,1.08,0,1,0,1.3v.72l0,1.11.1.76v1.87l0,.87-.69.21-.9-.07-.5-.11-.22-1,0-.76-.11-.86-.58.36-.93.83-1.19,1-1.4.65-.62.21-.75.22Zm2.12-2.91,1-.61.62-.44,1.08-.93.46-.47.8-.72.28-.65-.39-.29-.79.47-1.12.83-.65.47-1.15,1-.47.54-.47.8.29.18Z" transform="translate(-734.03 -507.18)"/><path class="cls-1" d="M1057.76,549.7h-.83l-.93-.14-.15-.83.15-1v-1.65l0-.94,0-.65.11-.75v-3.57l.11-.79,0-.65v-.64l0-1,0-.72.15-.76,1.19-.29,1.36.11.47,1,0,.65,0,.69v.64l.18.62.51-.62.46-.46.51-.47.5-.43,1-.87.57-.32,1-.47.76.25.15,1.08,0,.72-.68,1.05-.54.36-.54.39-.83.58-.72.86-.51.54-.9,1.22-.39.58-.4.65-.36,1.33v2.12l-.07,1.12,0,.72.08.54-.4.29Z" transform="translate(-734.03 -507.18)"/><path class="cls-1" d="M1084.8,549.81l-.65-.07-.61-.11-1.33-.29-.65-.29-.61-.36-.58-.43-.9-1-.36-.57-.25-.61-.36-1.48,0-1.47,0-.65.07-.65.18-1.3.11-.61.18-.65.5-1.36.4-.69,1-1.22,1-.76.57-.29.65-.14,1-.11,1.22-.18.69,0,.25.21.18.94v.79l-.08.86-.18.18-.75.22-1.22.18-.87.32-.72.8-.43.68-.25,1.19-.22,1,0,.61v1.26l.1.65.22.61.43.58.58.46.57.26,1.08.32,1,.18.5.07.22.29,0,1.08,0,.79-.36.87-.43,0Z" transform="translate(-734.03 -507.18)"/><path class="cls-1" d="M1092.83,549.27l-.87-.07-.21-.18-.08-.65,0-1.15,0-1.26V533.65l.08-.72,0-.72V531l0-1.47,0-.72v-3.13l.15-.43.5-.22,1.08.11.94.25.14.61.07,1v2.59l0,1.22-.11,1.23v.65l0,1.11.08.83,0,1.08-.07.72v3.28l0,1.11v3.89l0,1.08V548l.11,1-.25.28-.94.08Z" transform="translate(-734.03 -507.18)"/><path class="cls-1" d="M1105.17,550.06l-.61-.14-1.08-.47-.9-.79-.79-1.37-.43-1.55-.25-1.51-.08-.76v-2.23l0-1.15v-1.33l.11-.79,0-.72v-.72l.11-.94.25-.21.8,0h.64l1,.11.36.29.08.72-.08.68-.07.9,0,.76,0,.72-.07.72,0,.75v1.48l.11,1.44.07.72.15.72.28,1,.33.4.39.21.58,0,.65-.33.5-1,.22-1.29.07-.62,0-1.51v-3.56l0-1.23,0-1.08.14-.72.9-.14h.72l1,.18.21.68.08,1.19,0,.76-.11,1v.9l0,1.3v1.26l-.15.72v.54l-.11.75-.07.79-.14,1-.22.65-.57,1.3-.69.75-.75.33-1.19.36-.65.07Z" transform="translate(-734.03 -507.18)"/><path class="cls-1" d="M1115.65,549.59l-.22-.25,0-1,.1-1.33.87-.36,1.87-.11.83-.4.5-.79-.29-1.33-.32-.61-.79-1.12-.87-1.15-1.11-1.44-.29-.72-.14-1.47.21-.72.4-.62.79-.64.47-.15.86-.25.69-.07,1.58,0,1.19.18.39.79,0,.58,0,.83-.25.29-.83.14-.61,0-1.15.18-.61.21.21.72.58.76.68.68,1.37,1.69.4.62.32.64.51,1.33.07.69,0,.72-.43,1.37-.47.57-.54.51-1.19.61-1.29.32-.79.11-1.59.14Z" transform="translate(-734.03 -507.18)"/><path class="cls-1" d="M1134.37,549.56l-1.37-.47-.61-.36-.58-.47-.5-.54-.4-.61-.32-.68-.4-1.3-.21-1.3-.15-1.4,0-.65v-5.5l-.54-.33-2,0-.76-.18-.21-1,0-.76.83-1h2.13l.64-.47.08-1.18v-.69l.25-.86,1-.22,1.08,0,.47.25.14.9v1.44l.11.72h1.58l1,0h1.8l.46.47.11,1.12,0,.61-.44.61-.54.07h-1.08l-.68,0-.72.07L1133,536l-.11.22,0,.94V540l-.15,1,.11.82v1l.11,1.18.54,1.48,1.29.9.69.29.72.14,1.08,0,.46.18.11.39.08.54-.11,1-.15.75-.93.22h-.83Z" transform="translate(-734.03 -507.18)"/><path class="cls-1" d="M1146.32,549.63l-1.08-.18-.61-.25-.58-.25-1.15-.8-.47-.57-.54-1-.29-.94-.21-1.44,0-1v-.79l.22-1.08.25-1.41.51-1.69.79-1.47.54-.62,1.19-.86.61-.25.68-.15,1.37-.07,1.51.07,1.37.4,1,.9.43.58.33.64.36,1.48.07,1.22-.07,1.05-.07,1.22-.51.61-2,.29-.76,0-1.15.08h-2.37l-.79,0-.4.4.07.54.15.79.68.9,1.08.54.68.18.69.14.72.11h.72l.68,0,.86.11.22.58,0,.79,0,.72-.33.4-1,.14-.75.07-1.12.07Zm2.56-9.36,1,0,0-.69-.36-.75-.68-.47-.62-.18-.75,0-.58.18-1,.65-.43.54-.18.69.76,0Z" transform="translate(-734.03 -507.18)"/><path class="cls-1" d="M1159.71,549.7h-.83l-.93-.14-.15-.83.15-1v-1.65l0-.94,0-.65.11-.75v-3.57l.11-.79,0-.65v-.64l0-1,0-.72.15-.76,1.18-.29,1.37.11.47,1,0,.65,0,.69v.64l.18.62.5-.62.47-.46.51-.47.5-.43,1-.87.58-.32,1-.47.76.25.14,1.08,0,.72-.69,1.05-.54.36-.54.39-.82.58-.72.86-.51.54-.9,1.22-.39.58-.4.65-.36,1.33v2.12l-.07,1.12,0,.72.07.54-.39.29Z" transform="translate(-734.03 -507.18)"/><path class="cls-1" d="M1187.21,549.56l-1.36-.47-.62-.36-.57-.47-.51-.54-.39-.61-.33-.68-.39-1.3-.22-1.3-.14-1.4,0-.65v-5.5l-.54-.33-2,0-.76-.18-.21-1,0-.76.83-1h2.12l.65-.47.07-1.18v-.69l.25-.86,1-.22,1.08,0,.46.25.15.9v1.44l.11.72h1.58l1,0h1.8l.47.47.11,1.12,0,.61-.43.61-.54.07h-1.08l-.68,0-.72.07-1.44.07-.11.22,0,.94V540l-.14,1,.11.82v1l.1,1.18.54,1.48,1.3.9.68.29.72.14,1.08,0,.47.18.11.39.07.54-.11,1-.14.75-.94.22h-.82Z" transform="translate(-734.03 -507.18)"/><path class="cls-1" d="M1197.55,550l-.62-.18-.57-.28-.54-.36-1-1-.72-1.29-.25-.69-.15-.72-.11-1-.14-.87.11-.9.07-1,.11-.72.14-.72.18-.68.22-.68.57-1.41.4-.65.47-.61,1.15-1,.72-.33,1.29-.14,1.16.36.57.29.58.36.57.43.36.61.36.54.29.54.25.94.33,1.19.14,1.18v.65l.07.61,0,.87-.07,1.19,0,.79-.25.75-.22.62-.25.64-.4.72-.43.87-.9.86-1.19.4-.79.1Zm2.44-3.88.29-.72.18-.76.11-1.44v-2.09l-.07-1.44-.22-.75-.47-.72-.57-.36-.76,0-.65.72-.25.65-.21.68-.26,1.62-.21,1.59,0,.72.15,1.44.21.64.4.62,1.29.54Z" transform="translate(-734.03 -507.18)"/><path class="cls-1" d="M1217.71,549.59l-.22-.25,0-1,.1-1.33.87-.36,1.87-.11.83-.4.5-.79-.29-1.33-.32-.61-.79-1.12-.87-1.15-1.11-1.44L1218,539l-.15-1.47.22-.72.4-.62.79-.64.47-.15.86-.25.68-.07,1.59,0,1.19.18.39.79,0,.58,0,.83-.25.29-.83.14-.61,0-1.15.18-.61.21.21.72.58.76.68.68,1.37,1.69.4.62.32.64.5,1.33.08.69,0,.72-.43,1.37-.47.57-.54.51-1.19.61-1.29.32-.8.11-1.58.14Z" transform="translate(-734.03 -507.18)"/><path class="cls-1" d="M1236.42,549.56l-1.36-.47-.61-.36-.58-.47-.5-.54-.4-.61-.32-.68-.4-1.3-.22-1.3-.14-1.4,0-.65v-5.5l-.54-.33-2,0-.76-.18-.21-1,0-.76.83-1h2.12l.65-.47.07-1.18v-.69l.26-.86,1-.22,1.08,0,.47.25.14.9v1.44l.11.72h1.58l1,0h1.8l.47.47.11,1.12,0,.61-.43.61-.54.07h-1.08l-.68,0-.72.07-1.44.07-.11.22,0,.94V540l-.14,1,.11.82v1l.11,1.18.54,1.48,1.29.9.68.29.72.14,1.08,0,.47.18.11.39.07.54-.11,1-.14.75-.94.22h-.82Z" transform="translate(-734.03 -507.18)"/><path class="cls-1" d="M1245.61,550.06l-.69-.25-.61-.4-.65-1.22-.07-.65.11-.68.21-.61.29-.62.9-1.11.54-.54.54-.51,1.23-.93,1.15-.79.54-.33.57-.32,1.08-.54.51-.9-.33-.54-1-.86-.64-.22-.69-.14-1.51,0-2.48.18-.58-.11-.18-.75v-.62l.18-.79.9-.36,1.41-.25h1.29l.9-.07,1,0,.65.11,1.37.29,1.15.9.51.61.32.65.18.86.21.8.15.72.07.72.15,1.08,0,1,0,1.3v.72l0,1.11.11.76v1.87l0,.87-.68.21-.9-.07-.5-.11-.22-1,0-.76-.1-.86-.58.36-.94.83-1.18,1-1.41.65-.61.21-.75.22Zm2.12-2.91,1-.61.61-.44,1.08-.93.47-.47.79-.72.29-.65-.4-.29-.79.47-1.11.83-.65.47-1.15,1-.47.54-.47.8.29.18Z" transform="translate(-734.03 -507.18)"/><path class="cls-1" d="M1262.13,549.7h-.83l-.93-.14-.15-.83.15-1v-1.65l0-.94,0-.65.11-.75v-3.57l.1-.79,0-.65v-.64l0-1,0-.72.15-.76,1.18-.29,1.37.11.47,1,0,.65,0,.69v.64l.18.62.5-.62.47-.46.5-.47.51-.43,1-.87.58-.32,1-.47.76.25.14,1.08,0,.72-.69,1.05-.54.36-.54.39-.82.58-.72.86-.51.54-.9,1.22-.4.58-.39.65-.36,1.33v2.12l-.07,1.12,0,.72.07.54-.39.29Z" transform="translate(-734.03 -507.18)"/><path class="cls-1" d="M1280.27,549.56l-1.37-.47-.61-.36-.57-.47-.51-.54-.39-.61-.33-.68-.39-1.3-.22-1.3-.14-1.4,0-.65v-5.5l-.54-.33-2,0-.75-.18-.22-1,0-.76.83-1h2.12l.65-.47.07-1.18v-.69l.25-.86,1-.22,1.08,0,.47.25.15.9v1.44l.1.72h1.59l1,0h1.8l.47.47.11,1.12,0,.61-.43.61-.54.07h-1.08l-.69,0-.72.07-1.44.07-.1.22,0,.94V540l-.14,1,.1.82v1l.11,1.18.54,1.48,1.3.9.68.29.72.14,1.08,0,.47.18.11.39.07.54-.11,1-.14.75-.94.22h-.83Z" transform="translate(-734.03 -507.18)"/><path class="cls-1" d="M1288.27,549.23l-.08-.9v-1.26l0-1,.43-.47,1-.1,1.47.14.87.54,0,.83v.57l0,.58v.65l-.18.5-.86.18h-2Zm.1-8.89,0-.9,0-.82,0-.8.11-1.54,0-.72v-3l0-1.44v-2l0-.69v-.64l0-.65v-1.73l.18-.58.25-.25h1.69l1,.22.25.93v.72l-.11,1.55,0,1.51,0,.69v3.27l-.07,2,0,1,0,1.15v2.27l-.18.68-.8.33h-1.43Z" transform="translate(-734.03 -507.18)"/></g><g id="cluster"><path class="cls-1" d="M750.35,508.24l5.86,5.26,7.66-1.84a4.11,4.11,0,0,1,4.71,5.66l-3.19,7.2,4.12,6.72a4.1,4.1,0,0,1-3.93,6.22l-7.83-.81-5.12,6a4.1,4.1,0,0,1-7.13-1.8l-1.65-7.71-7.28-3a4.1,4.1,0,0,1-.49-7.34l6.82-3.95.61-7.86A4.11,4.11,0,0,1,750.35,508.24Z" transform="translate(-734.03 -507.18)"/><path class="cls-1" d="M795.71,522.85l2.59,5.25,5.79.84a3,3,0,0,1,1.69,5.2l-4.19,4.08,1,5.77a3,3,0,0,1-4.42,3.21L793,544.48l-5.18,2.72a3.05,3.05,0,0,1-4.43-3.21l1-5.77-4.19-4.08a3,3,0,0,1,1.69-5.2l5.79-.84,2.59-5.25A3,3,0,0,1,795.71,522.85Z" transform="translate(-734.03 -507.18)"/><path class="cls-1" d="M774.6,548.63v5.86l4.82,3.31a3,3,0,0,1-.78,5.41L773.07,565l-1.66,5.62a3,3,0,0,1-5.39.92l-3.44-4.73-5.85.15a3,3,0,0,1-2.55-4.83l3.44-4.74-2-5.52a3,3,0,0,1,3.81-3.92l5.57,1.81,4.64-3.56A3.05,3.05,0,0,1,774.6,548.63Z" transform="translate(-734.03 -507.18)"/></g></svg>